# xmcd CD database file
#
# Track frame offsets:
#	150
#	18407
#	33650
#	50867
#	65777
#	86197
#	104072
#	123362
#	163052
#
# Disc length: 2348 seconds
#
# Revision: 2
# Processed by: cddbd v1.4PL0 Copyright (c) Steve Scherf et al.
# Submitted via: CDex 1.50Beta7
#
DISCID=87092a09
DTITLE=NANIWA EXPRESS - WIND UP
DYEAR=1900
DGENRE=Jazz
TTITLE0=JASMIN
TTITLE1=MANHATTAN EXPRESS
TTITLE2=FAR AWAY
TTITLE3=SHOCK LAND
TTITLE4=MIL' MAMA
TTITLE5=BACK LASH
TTITLE6=SEVEN TASTE CIGAR
TTITLE7=OLINO
TTITLE8=MISSING MOMENTS
EXTD=
EXTT0=
EXTT1=
EXTT2=
EXTT3=
EXTT4=
EXTT5=
EXTT6=
EXTT7=
EXTT8=
PLAYORDER=
